@startuml
!include ../include/themes/light.puml
top to bottom direction
hide members

class "Outcome" as Outcome [[/concept/outcome/#ontology]]
class "OutcomeStereotype" as OutcomeStereotype [[/concept/outcome/outcome-stereotype/#ontology]]
class "UseCase" as UseCase [[/concept/use-case/#ontology]]
class "OutcomeRelationship" as OutcomeRelationship [[/concept/outcome/outcome-relationship/#ontology]]
class "Story" as Story [[/concept/story/#ontology]]

' Outcome has optional stereotype
Outcome "0..1" --> "1" OutcomeStereotype : outcome:stereotype

' Outcome linkage (relationship-object)
OutcomeRelationship "0..*" --> "1" UseCase : :useCase
OutcomeRelationship --> Outcome : :targetOutcome

' Stories reference outcomes as "why"
Story --> Outcome : :contributesTo

@enduml
